<svg xmlns="http://www.w3.org/2000/svg" xmlns:xlink="http://www.w3.org/1999/xlink" width="50" height="39" viewBox="0 0 50 39"><defs><path id="sgswa" d="M1040.807 621.747h-26.875c0-3.56 4.012-16.32 7.658-18.534.086-.052-.757 10.597-.618 10.513 1.349-.815 2.841-1.364 4.217-2.361.116-.084 1.549 7.074 1.706 6.933.155-.139 1.053-11.293 1.237-11.47l-4.64 2.386-1.15-6.957c1.532-1.334 3.24-2.16 5.028-2.16 7.42 0 13.437 14.23 13.437 21.65z"/><path id="sgswb" d="M1029.15 600.097c-.506 0-1.003.072-1.494.196 6.718 1.714 11.944 14.538 11.944 21.454h2.987c0-7.42-6.018-21.65-13.438-21.65z"/><path id="sgswc" d="M1048.889 633.585V614.63h-11.247c-1.224.022-2.232.866-2.596 2.032a6.772 6.772 0 0 1-6.465 4.751 6.772 6.772 0 0 1-6.464-4.75c-.363-1.167-1.373-2.011-2.597-2.033h-11.663v18.212z"/><path id="sgswd" d="M1052.95 639h-49.128v-8.123h49.128z"/></defs><g><g transform="translate(-1003 -600)"><use fill="#ebebeb" xlink:href="#sgswa"/></g><g transform="translate(-1003 -600)"><use fill="#bebebe" xlink:href="#sgswb"/></g><g transform="translate(-1003 -600)"><use fill="#3ed4e0" xlink:href="#sgswc"/></g><g transform="translate(-1003 -600)"><use fill="#ff7979" xlink:href="#sgswd"/></g></g></svg>