<svg xmlns="http://www.w3.org/2000/svg" xmlns:xlink="http://www.w3.org/1999/xlink" width="82" height="41" viewBox="0 0 82 41"><defs><path id="cxnua" d="M517.936 620.6h-27.43c0-3.633 4.095-16.658 7.816-18.917.088-.053-.773 10.816-.63 10.73 1.376-.832 2.9-1.392 4.303-2.41.119-.085 1.581 7.22 1.742 7.076.158-.141 1.074-11.526 1.263-11.706l-4.737 2.434-1.173-7.1c1.564-1.361 3.306-2.205 5.131-2.205 7.574 0 13.715 14.524 13.715 22.097z"/><path id="cxnub" d="M547.678 620.6h-27.43c0-3.633 4.095-16.658 7.816-18.917.088-.053-.773 10.816-.63 10.73 1.376-.832 2.9-1.392 4.304-2.41.118-.085 1.58 7.22 1.741 7.076.158-.141 1.074-11.526 1.263-11.706l-4.737 2.434-1.173-7.1c1.564-1.361 3.306-2.205 5.131-2.205 7.574 0 13.715 14.524 13.715 22.097z"/><path id="cxnuc" d="M506.037 598.502c-.516 0-1.023.074-1.524.201 6.857 1.75 12.191 14.837 12.191 21.896h3.048c0-7.573-6.141-22.097-13.715-22.097z"/><path id="cxnud" d="M535.78 598.502c-.516 0-1.024.074-1.525.201 6.857 1.75 12.191 14.837 12.191 21.896h3.048c0-7.573-6.141-22.097-13.715-22.097z"/><path id="cxnue" d="M555.927 632.682v-19.345h-11.479c-1.249.022-2.278.883-2.65 2.074a6.911 6.911 0 0 1-6.598 4.849c-3.1 0-5.724-2.04-6.598-4.849-.37-1.19-1.402-2.052-2.65-2.074h-11.905c-1.25.022-2.279.883-2.65 2.074a6.911 6.911 0 0 1-6.598 4.849c-3.1 0-5.724-2.04-6.598-4.849-.37-1.19-1.402-2.052-2.65-2.074h-11.478v19.345z"/><path id="cxnuf" d="M560.072 629.918v8.291h-80.144v-8.29z"/></defs><g><g transform="translate(-479 -598)"><use fill="#ebebeb" xlink:href="#cxnua"/></g><g transform="translate(-479 -598)"><use fill="#ebebeb" xlink:href="#cxnub"/></g><g transform="translate(-479 -598)"><use fill="#bebebe" xlink:href="#cxnuc"/></g><g transform="translate(-479 -598)"><use fill="#bebebe" xlink:href="#cxnud"/></g><g transform="translate(-479 -598)"><use fill="#3ed4e0" xlink:href="#cxnue"/></g><g transform="translate(-479 -598)"><use fill="#ff7979" xlink:href="#cxnuf"/></g></g></svg>