<svg xmlns="http://www.w3.org/2000/svg" xmlns:xlink="http://www.w3.org/1999/xlink" width="190" height="190" viewBox="0 0 190 190"><defs><path id="zkcma" d="M1024.732 1701.437v136.329l-120.834 4.175v-140.504z"/><path id="zkcmb" d="M1024.732 1837.766v29.229H912.249l-8.35-29.23z"/><path id="zkcmc" d="M847.269 1759.235v107.76h64.98v-107.76l-32.49-8.35z"/><path id="zkcmd" d="M847.269 1759.235v-57.798h64.98v57.798z"/><path id="zkcme" d="M983.497 1706.234l23.747-4.175 23.75 4.175a23.669 23.669 0 0 1-6.267 16.076c-4.334 4.731-10.56 7.696-17.483 7.696-13.115 0-23.747-10.656-23.747-23.772z"/><path id="zkcmf" d="M888.503 1706.234l23.748-4.175 23.75 4.175c0 13.116-10.632 23.772-23.752 23.772-13.115 0-23.746-10.656-23.746-23.772z"/><path id="zkcmg" d="M936 1706.234l23.751-4.175 23.747 4.175c0 13.116-10.632 23.772-23.747 23.772-13.12 0-23.75-10.656-23.75-23.772z"/><path id="zkcmh" d="M841.005 1706.234l23.749-4.175 23.749 4.175c0 13.116-10.631 23.772-23.747 23.772-6.923 0-13.149-2.965-17.483-7.696a23.667 23.667 0 0 1-6.268-16.076z"/><path id="zkcmi" d="M1024.732 1677.005H847.269l-6.264 29.23h189.99z"/><path id="zkcmj" d="M960.817 1783.69c0 12.946 5.045 24.686 13.27 33.397-.365.02-.74.03-1.115.03-15.66 0-28.361-12.702-28.361-28.362v-5.064z"/><path id="zkcmk" d="M1001.334 1783.69v5.065c0 15.285-12.105 27.754-27.247 28.332-8.225-8.711-13.27-20.451-13.27-33.396z"/><path id="zkcml" d="M991.205 1783.69H954.74c0-4.828 5.444-22.143 10.39-25.145.117-.071-1.027 14.378-.838 14.264 1.83-1.106 3.855-1.851 5.722-3.204.157-.114 2.1 9.598 2.315 9.406.21-.187 1.428-15.322 1.678-15.561l-6.296 3.236-1.56-9.44c2.079-1.808 4.395-2.93 6.821-2.93 10.068 0 18.233 19.307 18.233 29.375z"/><path id="zkcmm" d="M972.972 1754.317c-.685 0-1.36.097-2.026.266 9.116 2.326 16.207 19.724 16.207 29.108h4.052c0-10.068-8.165-29.374-18.233-29.374z"/><path id="zkcmn" d="M998.295 1783.69h-2.026c0 4.002 1.801 7.585 4.627 10.003.145-.823.255-1.655.326-2.502a11.088 11.088 0 0 1-2.927-7.5z"/><path id="zkcmo" d="M994.243 1783.69h-2.026c0 5.929 3.012 11.164 7.583 14.264.232-.677.442-1.364.622-2.062-3.74-2.769-6.179-7.2-6.179-12.201z"/><path id="zkcmp" d="M990.192 1783.69h-2.026c0 7.6 4.02 14.263 10.03 18.026.312-.602.6-1.216.866-1.842-5.326-3.426-8.87-9.393-8.87-16.183z"/><path id="zkcmq" d="M996.08 1805.19c.392-.548.761-1.113 1.114-1.69-6.628-4.112-11.054-11.452-11.054-19.81h-2.026c0 9.063 4.79 17.026 11.966 21.501z"/><path id="zkcmr" d="M993.483 1808.334c.471-.493.922-1.007 1.358-1.535-7.655-4.851-12.752-13.393-12.752-23.108h-2.026c0 10.317 5.351 19.4 13.42 24.643z"/><path id="zkcms" d="M978.037 1783.69h-2.026c0 11.357 5.697 21.4 14.377 27.445.55-.43 1.082-.884 1.6-1.354-8.405-5.64-13.951-15.228-13.951-26.09z"/><path id="zkcmt" d="M973.985 1783.69h-2.026c0 12.159 5.824 22.979 14.824 29.83.638-.356 1.26-.737 1.866-1.14-8.877-6.449-14.664-16.903-14.664-28.69z"/><path id="zkcmu" d="M969.934 1783.69h-2.026c0 12.706 5.74 24.089 14.757 31.714.724-.264 1.437-.55 2.13-.869-9.049-7.245-14.861-18.375-14.861-30.844z"/><path id="zkcmv" d="M965.882 1783.69h-2.026c0 12.959 5.444 24.662 14.155 32.968.81-.145 1.606-.326 2.39-.539-8.904-7.98-14.52-19.559-14.52-32.428z"/><path id="zkcmw" d="M960.948 1787.09a23.222 23.222 0 0 1-7.652-3.4h-3.319a25.259 25.259 0 0 0 11.162 5.523 49.106 49.106 0 0 1-.191-2.123z"/><path id="zkcmx" d="M961.804 1793.457a45.37 45.37 0 0 1-.38-2.127 27.31 27.31 0 0 1-14.427-7.64h-2.386v.424c4.404 4.875 10.417 8.27 17.193 9.343z"/><path id="zkcmy" d="M962.278 1795.566c-6.818-.9-12.951-3.994-17.667-8.55v1.74c0 .343.014.682.025 1.022 5.01 4.312 11.3 7.17 18.221 7.904-.208-.699-.4-1.405-.58-2.116z"/><path id="zkcmz" d="M963.537 1799.77a35.256 35.256 0 0 1-18.662-7.188c.134.984.315 1.95.546 2.898a37.252 37.252 0 0 0 18.904 6.382 46.668 46.668 0 0 1-.788-2.091z"/><path id="zkcmA" d="M965.21 1803.919a39.23 39.23 0 0 1-18.902-5.484c.378 1.04.82 2.05 1.313 3.03a41.242 41.242 0 0 0 18.587 4.505 48.398 48.398 0 0 1-.999-2.051z"/><path id="zkcmB" d="M968.518 1809.973a49.48 49.48 0 0 1-1.214-1.995c-.3.006-.597.023-.896.023a43.313 43.313 0 0 1-16.993-3.453 28.361 28.361 0 0 0 2.38 3.062 45.356 45.356 0 0 0 14.613 2.417c.707 0 1.41-.022 2.11-.054z"/><path id="zkcmC" d="M969.834 1811.916a48.12 48.12 0 0 1-3.426.136c-3.952 0-7.789-.492-11.461-1.404a28.516 28.516 0 0 0 4.26 2.902c2.35.343 4.754.528 7.2.528 1.646 0 3.271-.085 4.876-.241a47.992 47.992 0 0 1-1.449-1.921z"/></defs><g><g transform="translate(-841 -1677)"><g><g><use xlink:href="#zkcma"/></g><g><use fill="#222" fill-opacity=".28" xlink:href="#zkcmb"/></g><g><use fill="#ccc" xlink:href="#zkcmc"/></g><g><use fill="#848484" xlink:href="#zkcmd"/></g><g><g><use fill="#fff" xlink:href="#zkcme"/></g><g><use fill="#fff" xlink:href="#zkcmf"/></g></g><g><g><use fill="#a0a0a0" xlink:href="#zkcmg"/></g><g><use fill="#a0a0a0" xlink:href="#zkcmh"/></g></g><g><use fill="#1f1f1f" xlink:href="#zkcmi"/></g></g><g opacity=".31"><g opacity=".31"><use fill="#3ed4e0" xlink:href="#zkcmj"/></g><g opacity=".31"><use fill="#3ed4e0" xlink:href="#zkcmk"/></g><g opacity=".31"><use fill="#ebebeb" xlink:href="#zkcml"/></g><g opacity=".31"><use fill="#bebebe" xlink:href="#zkcmm"/></g><g opacity=".31"><g opacity=".31"><use fill="#ff7979" xlink:href="#zkcmn"/></g><g opacity=".31"><use fill="#ff7979" xlink:href="#zkcmo"/></g><g opacity=".31"><use fill="#ff7979" xlink:href="#zkcmp"/></g><g opacity=".31"><use fill="#ff7979" xlink:href="#zkcmq"/></g><g opacity=".31"><use fill="#ff7979" xlink:href="#zkcmr"/></g><g opacity=".31"><use fill="#ff7979" xlink:href="#zkcms"/></g><g opacity=".31"><use fill="#ff7979" xlink:href="#zkcmt"/></g><g opacity=".31"><use fill="#ff7979" xlink:href="#zkcmu"/></g><g opacity=".31"><use fill="#ff7979" xlink:href="#zkcmv"/></g></g><g opacity=".31"><use fill="#ff7979" xlink:href="#zkcmw"/></g><g opacity=".31"><use fill="#ff7979" xlink:href="#zkcmx"/></g><g opacity=".31"><use fill="#ff7979" xlink:href="#zkcmy"/></g><g opacity=".31"><use fill="#ff7979" xlink:href="#zkcmz"/></g><g opacity=".31"><use fill="#ff7979" xlink:href="#zkcmA"/></g><g opacity=".31"><use fill="#ff7979" xlink:href="#zkcmB"/></g><g opacity=".31"><use fill="#ff7979" xlink:href="#zkcmC"/></g></g></g></g></svg>