<svg xmlns="http://www.w3.org/2000/svg" xmlns:xlink="http://www.w3.org/1999/xlink" width="338" height="374" viewBox="0 0 338 374"><defs><path id="17fya" d="M563.694 501.95c0 77.005 30.007 146.843 78.935 198.663-2.169.12-4.399.18-6.629.18-93.155 0-168.715-75.561-168.715-168.716v-30.128z"/><path id="17fyb" d="M804.716 501.95v30.127c0 90.925-72.007 165.1-162.087 168.536-48.929-51.82-78.935-121.658-78.935-198.664z"/><path id="17fyc" d="M744.46 501.95H527.54c0-28.727 32.385-131.728 61.811-149.588.697-.423-6.113 85.532-4.986 84.851 10.883-6.577 22.932-11.01 34.035-19.058.936-.675 12.5 57.096 13.774 55.957 1.25-1.117 8.492-91.15 9.984-92.57l-37.456 19.25-9.277-56.151c12.364-10.762 26.14-17.433 40.575-17.433 59.894 0 108.46 114.848 108.46 174.741z"/><path id="17fyd" d="M636 327.208c-4.078 0-8.09.58-12.05 1.586 54.223 13.834 96.408 117.334 96.408 173.155h24.102c0-59.893-48.566-174.74-108.46-174.74z"/><path id="17fye" d="M786.64 501.95h-12.052c0 23.8 10.713 45.117 27.524 59.501.862-4.898 1.518-9.85 1.941-14.884-10.767-11.783-17.414-27.42-17.414-44.618z"/><path id="17fyf" d="M762.536 501.95h-12.051c0 35.261 17.915 66.407 45.107 84.845a166.292 166.292 0 0 0 3.7-12.263c-22.245-16.473-36.756-42.829-36.756-72.583z"/><path id="17fyg" d="M738.435 501.95h-12.052c0 45.208 23.918 84.84 59.67 107.223a160.014 160.014 0 0 0 5.147-10.953c-31.682-20.384-52.765-55.88-52.765-96.27z"/><path id="17fyh" d="M773.462 629.847a167.31 167.31 0 0 0 6.628-10.062c-39.43-24.457-65.757-68.119-65.757-117.836h-12.052c0 53.91 28.49 101.278 71.18 127.899z"/><path id="17fyi" d="M758.013 648.545c2.806-2.936 5.483-5.99 8.078-9.13-45.539-28.862-75.86-79.676-75.86-137.466H678.18c0 61.377 31.835 115.412 79.834 146.596z"/><path id="17fyj" d="M666.127 501.95h-12.05c0 67.551 33.887 127.3 85.525 163.257 3.277-2.563 6.437-5.26 9.52-8.053-50.004-33.55-82.995-90.586-82.995-155.205z"/><path id="17fyk" d="M642.026 501.95h-12.051c0 72.324 34.641 136.69 88.182 177.447a172.879 172.879 0 0 0 11.101-6.779c-52.809-38.366-87.232-100.554-87.232-170.669z"/><path id="17fyl" d="M617.924 501.95h-12.052c0 75.577 34.154 143.291 87.785 188.653 4.31-1.573 8.551-3.271 12.679-5.169-53.833-43.102-88.412-109.31-88.412-183.485z"/><path id="17fym" d="M593.821 501.95h-12.05c0 77.084 32.387 146.704 84.206 196.112 4.814-.862 9.551-1.939 14.215-3.205-52.965-47.468-86.37-116.353-86.37-192.908z"/><path id="17fyn" d="M564.47 522.17a138.14 138.14 0 0 1-45.52-20.22h-19.743c18.742 16.022 41.426 27.54 66.402 32.851a292.103 292.103 0 0 1-1.139-12.63z"/><path id="17fyo" d="M569.563 560.042c-.856-4.175-1.603-8.4-2.265-12.648-33.226-6.146-62.945-22.378-85.817-45.445h-14.196v2.519c26.2 29 61.968 49.198 102.278 55.574z"/><path id="17fyp" d="M572.382 572.594c-40.558-5.358-77.044-23.761-105.097-50.862v10.345c0 2.043.085 4.06.15 6.085 29.798 25.647 67.222 42.649 108.395 47.018a304.71 304.71 0 0 1-3.448-12.586z"/><path id="17fyq" d="M579.872 597.605c-41.546-3.35-79.717-18.756-111.013-42.764.794 5.851 1.871 11.6 3.245 17.24 32.437 22 70.947 35.677 112.455 37.961a277.597 277.597 0 0 1-4.687-12.437z"/><path id="17fyr" d="M589.82 622.281c-40.955-1.229-79.303-12.951-112.438-32.623 2.248 6.187 4.881 12.19 7.812 18.021 33.255 16.95 70.8 26.616 110.566 26.804a287.896 287.896 0 0 1-5.94-12.202z"/><path id="17fys" d="M609.506 658.292c-2.5-3.892-4.905-7.85-7.226-11.868-1.783.036-3.548.139-5.331.139-35.848 0-70.012-7.327-101.084-20.543a168.735 168.735 0 0 0 14.158 18.216c27.309 9.273 56.527 14.378 86.926 14.378 4.21 0 8.388-.126 12.557-.322z"/><path id="17fyt" d="M617.332 669.853c-6.74.48-13.519.811-20.383.811a282.51 282.51 0 0 1-68.179-8.352 169.673 169.673 0 0 0 25.344 17.26c13.984 2.042 28.283 3.145 42.835 3.145 9.786 0 19.457-.507 29.001-1.438a286.004 286.004 0 0 1-8.618-11.426z"/></defs><g><g transform="translate(-467 -327)"><g><use fill="#3ed4e0" xlink:href="#17fya"/></g><g><use fill="#3ed4e0" xlink:href="#17fyb"/></g><g><use fill="#ebebeb" xlink:href="#17fyc"/></g><g><use fill="#bebebe" xlink:href="#17fyd"/></g><g><g><use fill="#ff7979" xlink:href="#17fye"/></g><g><use fill="#ff7979" xlink:href="#17fyf"/></g><g><use fill="#ff7979" xlink:href="#17fyg"/></g><g><use fill="#ff7979" xlink:href="#17fyh"/></g><g><use fill="#ff7979" xlink:href="#17fyi"/></g><g><use fill="#ff7979" xlink:href="#17fyj"/></g><g><use fill="#ff7979" xlink:href="#17fyk"/></g><g><use fill="#ff7979" xlink:href="#17fyl"/></g><g><use fill="#ff7979" xlink:href="#17fym"/></g></g><g><use fill="#ff7979" xlink:href="#17fyn"/></g><g><use fill="#ff7979" xlink:href="#17fyo"/></g><g><use fill="#ff7979" xlink:href="#17fyp"/></g><g><use fill="#ff7979" xlink:href="#17fyq"/></g><g><use fill="#ff7979" xlink:href="#17fyr"/></g><g><use fill="#ff7979" xlink:href="#17fys"/></g><g><use fill="#ff7979" xlink:href="#17fyt"/></g></g></g></svg>