<svg xmlns="http://www.w3.org/2000/svg" xmlns:xlink="http://www.w3.org/1999/xlink" width="212" height="212" viewBox="0 0 212 212"><defs><path id="kb9ra" d="M549.993 2239.157v49.836h93.572v-43.474z"/><path id="kb9rb" d="M456.421 2288.993v-43.474h93.572v43.474z"/><path id="kb9rc" d="M631.144 2245.52v-103.572h12.421v103.571z"/><path id="kb9rd" d="M454.86 2239.94v-103.57h12.422v103.57z"/><path id="kb9re" d="M444 2126.691v4.555c0 14.634 11.864 26.498 26.498 26.498 14.635 0 26.499-11.864 26.499-26.498v-4.555l-26.499-12.42z"/><path id="kb9rf" d="M496.997 2077.007H444v49.684h52.997l24.842-24.056z"/><path id="kb9rg" d="M496.997 2126.691v4.555c0 14.634 11.863 26.498 26.498 26.498 14.634 0 26.498-11.864 26.498-26.498v-4.555l-26.498-12.42z"/><path id="kb9rh" d="M549.993 2077.007h-52.996v49.684h52.996l24.842-24.056z"/><path id="kb9ri" d="M549.993 2126.691v4.555c0 14.634 11.864 26.498 26.498 26.498 14.635 0 26.499-11.864 26.499-26.498v-4.555l-26.499-12.42z"/><path id="kb9rj" d="M602.99 2077.007h-52.997v49.684h52.997l24.842-24.056z"/><path id="kb9rk" d="M602.99 2126.691v4.555c0 14.634 11.864 26.498 26.498 26.498 14.635 0 26.498-11.864 26.498-26.498v-4.555l-26.498-12.42z"/><path id="kb9rl" d="M602.99 2126.691v-49.684h52.996v49.684z"/><path id="kb9rm" d="M655.986 2251.73H549.993l-12.42-6.21 12.42-6.211h105.993z"/><path id="kb9rn" d="M444 2251.73v-12.421h105.993v12.42z"/><path id="kb9ro" d="M516.965 2203.938h-14.51c0-1.922 2.166-8.812 4.135-10.006.046-.028-.41 5.721-.334 5.676.728-.44 1.534-.737 2.277-1.275.062-.045.836 3.82.92 3.743.085-.075.569-6.097.669-6.192l-2.506 1.287-.62-3.756c.827-.72 1.748-1.166 2.714-1.166 4.006 0 7.255 7.683 7.255 11.689z"/><path id="kb9rp" d="M532.697 2203.938h-14.51c0-1.922 2.167-8.812 4.135-10.006.047-.028-.409 5.721-.333 5.676.728-.44 1.534-.737 2.276-1.275.063-.045.836 3.82.922 3.743.083-.075.568-6.097.668-6.192l-2.506 1.287-.62-3.756c.827-.72 1.748-1.166 2.714-1.166 4.006 0 7.254 7.683 7.254 11.689z"/><path id="kb9rq" d="M548.43 2203.554h-14.51c0-1.921 2.167-8.811 4.135-10.006.047-.028-.409 5.721-.334 5.676.728-.44 1.534-.737 2.277-1.275.063-.045.836 3.82.921 3.743.084-.075.568-6.097.668-6.192l-2.505 1.288-.62-3.756c.826-.72 1.748-1.166 2.713-1.166 4.007 0 7.255 7.682 7.255 11.688z"/><path id="kb9rr" d="M564.547 2203.938h-14.51c0-1.922 2.166-8.812 4.134-10.006.047-.028-.409 5.721-.333 5.676.728-.44 1.534-.737 2.276-1.275.063-.045.837 3.82.922 3.743.083-.075.568-6.097.668-6.192l-2.506 1.287-.62-3.756c.827-.72 1.748-1.166 2.714-1.166 4.006 0 7.255 7.683 7.255 11.689z"/><path id="kb9rs" d="M580.663 2203.554h-14.51c0-1.921 2.167-8.811 4.135-10.006.046-.028-.41 5.721-.334 5.676.728-.44 1.534-.737 2.277-1.275.063-.045.836 3.82.921 3.743.084-.075.568-6.097.668-6.192l-2.505 1.288-.62-3.756c.826-.72 1.748-1.166 2.713-1.166 4.006 0 7.255 7.682 7.255 11.688z"/><path id="kb9rt" d="M597.163 2203.554h-14.51c0-1.921 2.167-8.811 4.135-10.006.047-.028-.409 5.721-.334 5.676.728-.44 1.534-.737 2.277-1.275.063-.045.836 3.82.921 3.743.084-.075.568-6.097.668-6.192l-2.505 1.288-.62-3.756c.826-.72 1.748-1.166 2.713-1.166 4.007 0 7.255 7.682 7.255 11.688z"/><path id="kb9ru" d="M510.67 2192.25c-.272 0-.54.038-.806.105 3.627.926 6.45 7.849 6.45 11.583h1.611c0-4.006-3.248-11.689-7.254-11.689z"/><path id="kb9rv" d="M526.403 2192.25c-.273 0-.541.038-.806.105 3.627.926 6.449 7.849 6.449 11.583h1.612c0-4.006-3.249-11.689-7.255-11.689z"/><path id="kb9rw" d="M542.136 2191.866c-.273 0-.541.038-.806.106 3.627.925 6.449 7.848 6.449 11.582h1.612c0-4.006-3.249-11.688-7.255-11.688z"/><path id="kb9rx" d="M558.252 2192.25c-.272 0-.54.038-.806.105 3.627.926 6.45 7.849 6.45 11.583h1.611c0-4.006-3.248-11.689-7.255-11.689z"/><path id="kb9ry" d="M574.369 2191.866c-.273 0-.541.038-.806.106 3.627.925 6.449 7.848 6.449 11.582h1.612c0-4.006-3.249-11.688-7.255-11.688z"/><path id="kb9rz" d="M590.869 2191.866c-.273 0-.541.038-.806.106 3.627.925 6.449 7.848 6.449 11.582h1.612c0-4.006-3.249-11.688-7.255-11.688z"/><path id="kb9rA" d="M510.016 2213.037h-11.695 11.695z"/><path id="kb9rB" d="M537.06 2210.33v-10.234h-6.071c-.66.012-1.205.468-1.402 1.098a3.656 3.656 0 0 1-6.98 0c-.196-.63-.742-1.086-1.402-1.098h-6.297c-.661.012-1.206.468-1.402 1.098a3.656 3.656 0 0 1-6.98 0c-.197-.63-.742-1.086-1.403-1.098h-6.07v10.234z"/><path id="kb9rC" d="M539.254 2208.867v4.386h-42.395v-4.386z"/><path id="kb9rD" d="M567.759 2210.33v-10.234h-6.072c-.66.012-1.205.468-1.402 1.098a3.656 3.656 0 0 1-6.98 0c-.196-.63-.742-1.086-1.402-1.098h-6.297c-.661.012-1.206.468-1.402 1.098a3.656 3.656 0 0 1-6.98 0c-.197-.63-.742-1.086-1.403-1.098h-6.07v10.234z"/><path id="kb9rE" d="M569.952 2213.253h-42.395v-4.386h42.395z"/><path id="kb9rF" d="M600.76 2210.33v-10.234h-6.073c-.66.012-1.205.468-1.402 1.098a3.656 3.656 0 0 1-6.98 0c-.196-.63-.741-1.086-1.402-1.098h-6.297c-.66.012-1.205.468-1.402 1.098a3.656 3.656 0 0 1-6.98 0c-.196-.63-.742-1.086-1.402-1.098h-6.072v10.234z"/><path id="kb9rG" d="M602.952 2213.253h-42.394v-4.386h42.394z"/><path id="kb9rH" d="M516.965 2230.031h-14.51c0-1.921 2.166-8.811 4.135-10.006.046-.028-.41 5.721-.334 5.676.728-.44 1.534-.737 2.277-1.275.062-.045.836 3.82.92 3.743.085-.075.569-6.097.669-6.192l-2.506 1.288-.62-3.756c.827-.72 1.748-1.166 2.714-1.166 4.006 0 7.255 7.682 7.255 11.688z"/><path id="kb9rI" d="M532.697 2230.031h-14.51c0-1.921 2.167-8.811 4.135-10.006.047-.028-.409 5.721-.333 5.676.728-.44 1.534-.737 2.276-1.275.063-.045.836 3.82.922 3.743.083-.075.568-6.097.668-6.192l-2.506 1.288-.62-3.756c.827-.72 1.748-1.166 2.714-1.166 4.006 0 7.254 7.682 7.254 11.688z"/><path id="kb9rJ" d="M548.43 2230.031h-14.51c0-1.921 2.167-8.811 4.135-10.006.047-.028-.409 5.721-.334 5.676.728-.44 1.534-.737 2.277-1.275.063-.045.836 3.82.921 3.743.084-.075.568-6.097.668-6.192l-2.505 1.288-.62-3.756c.826-.72 1.748-1.166 2.713-1.166 4.007 0 7.255 7.682 7.255 11.688z"/><path id="kb9rK" d="M564.547 2230.031h-14.51c0-1.921 2.166-8.811 4.134-10.006.047-.028-.409 5.721-.333 5.676.728-.44 1.534-.737 2.276-1.275.063-.045.837 3.82.922 3.743.083-.075.568-6.097.668-6.192l-2.506 1.288-.62-3.756c.827-.72 1.748-1.166 2.714-1.166 4.006 0 7.255 7.682 7.255 11.688z"/><path id="kb9rL" d="M580.663 2230.031h-14.51c0-1.921 2.167-8.811 4.135-10.006.046-.028-.41 5.721-.334 5.676.728-.44 1.534-.737 2.277-1.275.063-.045.836 3.82.921 3.743.084-.075.568-6.097.668-6.192l-2.505 1.288-.62-3.756c.826-.72 1.748-1.166 2.713-1.166 4.006 0 7.255 7.682 7.255 11.688z"/><path id="kb9rM" d="M597.163 2230.031h-14.51c0-1.921 2.167-8.811 4.135-10.006.047-.028-.409 5.721-.334 5.676.728-.44 1.534-.737 2.277-1.275.063-.045.836 3.82.921 3.743.084-.075.568-6.097.668-6.192l-2.505 1.288-.62-3.756c.826-.72 1.748-1.166 2.713-1.166 4.007 0 7.255 7.682 7.255 11.688z"/><path id="kb9rN" d="M510.67 2218.343c-.272 0-.54.038-.806.106 3.627.925 6.45 7.848 6.45 11.582h1.611c0-4.006-3.248-11.688-7.254-11.688z"/><path id="kb9rO" d="M526.403 2218.343c-.273 0-.541.038-.806.106 3.627.925 6.449 7.848 6.449 11.582h1.612c0-4.006-3.249-11.688-7.255-11.688z"/><path id="kb9rP" d="M542.136 2218.343c-.273 0-.541.038-.806.106 3.627.925 6.449 7.848 6.449 11.582h1.612c0-4.006-3.249-11.688-7.255-11.688z"/><path id="kb9rQ" d="M558.252 2218.343c-.272 0-.54.038-.806.106 3.627.925 6.45 7.848 6.45 11.582h1.611c0-4.006-3.248-11.688-7.255-11.688z"/><path id="kb9rR" d="M574.369 2218.343c-.273 0-.541.038-.806.106 3.627.925 6.449 7.848 6.449 11.582h1.612c0-4.006-3.249-11.688-7.255-11.688z"/><path id="kb9rS" d="M590.869 2217.959c-.273 0-.541.039-.806.106 3.627.925 6.449 7.848 6.449 11.582h1.612c0-4.006-3.249-11.688-7.255-11.688z"/><path id="kb9rT" d="M510.016 2239.13h-11.695 11.695z"/><path id="kb9rU" d="M537.06 2236.423v-10.233h-6.071c-.66.011-1.205.467-1.402 1.097a3.656 3.656 0 0 1-6.98 0c-.196-.63-.742-1.086-1.402-1.097h-6.297c-.661.011-1.206.467-1.402 1.097a3.656 3.656 0 0 1-6.98 0c-.197-.63-.742-1.086-1.403-1.097h-6.07v10.233z"/><path id="kb9rV" d="M539.254 2234.96v4.386h-42.395v-4.385z"/><path id="kb9rW" d="M567.759 2236.423v-10.233h-6.072c-.66.011-1.205.467-1.402 1.097a3.656 3.656 0 0 1-6.98 0c-.196-.63-.742-1.086-1.402-1.097h-6.297c-.661.011-1.206.467-1.402 1.097a3.656 3.656 0 0 1-6.98 0c-.197-.63-.742-1.086-1.403-1.097h-6.07v10.233z"/><path id="kb9rX" d="M569.952 2239.346h-42.395v-4.385h42.395z"/><path id="kb9rY" d="M600.76 2236.423v-10.233h-6.073c-.66.011-1.205.467-1.402 1.097a3.656 3.656 0 0 1-6.98 0c-.196-.63-.741-1.086-1.402-1.097h-6.297c-.66.011-1.205.467-1.402 1.097a3.656 3.656 0 0 1-6.98 0c-.196-.63-.742-1.086-1.402-1.097h-6.072v10.233z"/><path id="kb9rZ" d="M602.952 2239.346h-42.394v-4.385h42.394z"/><path id="kb9raa" d="M518.884 2177.845h-14.51c0-1.922 2.166-8.812 4.134-10.006.047-.029-.408 5.72-.333 5.675.728-.44 1.534-.736 2.277-1.274.062-.046.836 3.819.92 3.743.085-.075.569-6.098.669-6.193l-2.506 1.288-.62-3.756c.827-.72 1.748-1.166 2.714-1.166 4.006 0 7.255 7.682 7.255 11.689z"/><path id="kb9rab" d="M534.616 2177.845h-14.51c0-1.922 2.167-8.812 4.135-10.006.047-.029-.409 5.72-.333 5.675.728-.44 1.534-.736 2.276-1.274.063-.046.836 3.819.922 3.743.083-.075.568-6.098.667-6.193l-2.505 1.288-.62-3.756c.827-.72 1.748-1.166 2.714-1.166 4.006 0 7.254 7.682 7.254 11.689z"/><path id="kb9rac" d="M550.35 2177.845h-14.51c0-1.922 2.166-8.812 4.134-10.006.046-.029-.409 5.72-.334 5.675.728-.44 1.534-.736 2.277-1.274.063-.046.836 3.819.921 3.743.084-.075.568-6.098.668-6.193l-2.505 1.288-.62-3.756c.826-.72 1.748-1.166 2.713-1.166 4.007 0 7.255 7.682 7.255 11.689z"/><path id="kb9rad" d="M566.466 2177.845h-14.51c0-1.922 2.166-8.812 4.134-10.006.047-.029-.409 5.72-.333 5.675.728-.44 1.534-.736 2.276-1.274.063-.046.837 3.819.922 3.743.083-.075.568-6.098.668-6.193l-2.506 1.288-.62-3.756c.827-.72 1.748-1.166 2.714-1.166 4.006 0 7.255 7.682 7.255 11.689z"/><path id="kb9rae" d="M582.582 2177.845h-14.51c0-1.922 2.167-8.812 4.135-10.006.046-.029-.41 5.72-.334 5.675.728-.44 1.534-.736 2.277-1.274.062-.046.836 3.819.921 3.743.084-.075.568-6.098.668-6.193l-2.505 1.288-.62-3.756c.826-.72 1.748-1.166 2.713-1.166 4.006 0 7.255 7.682 7.255 11.689z"/><path id="kb9raf" d="M599.082 2177.845h-14.51c0-1.922 2.167-8.812 4.135-10.006.047-.029-.409 5.72-.334 5.675.728-.44 1.534-.736 2.277-1.274.063-.046.836 3.819.921 3.743.084-.075.568-6.098.668-6.193l-2.505 1.288-.62-3.756c.826-.72 1.748-1.166 2.713-1.166 4.007 0 7.255 7.682 7.255 11.689z"/><path id="kb9rag" d="M512.59 2166.156c-.273 0-.542.039-.807.106 3.627.925 6.45 7.849 6.45 11.583h1.611c0-4.007-3.248-11.689-7.255-11.689z"/><path id="kb9rah" d="M528.322 2166.156c-.273 0-.541.039-.806.106 3.627.925 6.449 7.849 6.449 11.583h1.612c0-4.007-3.249-11.689-7.255-11.689z"/><path id="kb9rai" d="M544.055 2166.156c-.273 0-.541.039-.806.106 3.627.925 6.449 7.849 6.449 11.583h1.612c0-4.007-3.249-11.689-7.255-11.689z"/><path id="kb9raj" d="M560.171 2166.156c-.272 0-.54.039-.806.106 3.627.925 6.45 7.849 6.45 11.583h1.611c0-4.007-3.248-11.689-7.255-11.689z"/><path id="kb9rak" d="M576.288 2166.156c-.273 0-.541.039-.806.106 3.627.925 6.449 7.849 6.449 11.583h1.612c0-4.007-3.249-11.689-7.255-11.689z"/><path id="kb9ral" d="M592.788 2166.156c-.273 0-.541.039-.806.106 3.627.925 6.449 7.849 6.449 11.583h1.612c0-4.007-3.249-11.689-7.255-11.689z"/><path id="kb9ram" d="M511.935 2186.944H500.24h11.695z"/><path id="kb9ran" d="M538.98 2184.236v-10.233h-6.072c-.66.012-1.205.467-1.402 1.097a3.656 3.656 0 0 1-6.98 0c-.196-.63-.742-1.085-1.402-1.097h-6.297c-.661.012-1.206.467-1.402 1.097a3.656 3.656 0 0 1-6.98 0c-.197-.63-.742-1.085-1.403-1.097h-6.07v10.233z"/><path id="kb9rao" d="M541.173 2182.774v4.386h-42.395v-4.386z"/><path id="kb9rap" d="M569.678 2184.236v-10.233h-6.072c-.66.012-1.206.467-1.402 1.097a3.656 3.656 0 0 1-6.98 0c-.196-.63-.742-1.085-1.402-1.097h-6.297c-.661.012-1.206.467-1.402 1.097a3.656 3.656 0 0 1-6.98 0c-.197-.63-.742-1.085-1.403-1.097h-6.07v10.233z"/><path id="kb9raq" d="M571.87 2187.16h-42.394v-4.386h42.395z"/><path id="kb9rar" d="M602.678 2184.236v-10.233h-6.072c-.66.012-1.205.467-1.402 1.097a3.656 3.656 0 0 1-6.98 0c-.196-.63-.741-1.085-1.402-1.097h-6.297c-.66.012-1.205.467-1.402 1.097a3.656 3.656 0 0 1-6.98 0c-.196-.63-.742-1.085-1.402-1.097h-6.072v10.233z"/><path id="kb9ras" d="M604.87 2187.16h-42.393v-4.386h42.394z"/></defs><g><g transform="translate(-444 -2077)"><g><use fill="#646464" xlink:href="#kb9ra"/></g><g><use fill="#434343" xlink:href="#kb9rb"/></g><g><use fill="#646464" xlink:href="#kb9rc"/></g><g><use fill="#646464" xlink:href="#kb9rd"/></g><g><use fill="#f78b8b" xlink:href="#kb9re"/></g><g><use fill="#ff7272" xlink:href="#kb9rf"/></g><g><use fill="#8bf2fa" xlink:href="#kb9rg"/></g><g><g><use fill="#3ed4e0" xlink:href="#kb9rh"/></g><g><use fill="#f78b8b" xlink:href="#kb9ri"/></g></g><g><use fill="#ff7272" xlink:href="#kb9rj"/></g><g><use fill="#8bf2fa" xlink:href="#kb9rk"/></g><g><use fill="#3ed4e0" xlink:href="#kb9rl"/></g><g><use fill="#646464" xlink:href="#kb9rm"/></g><g><use fill="#434343" xlink:href="#kb9rn"/></g><g><g><use fill="#ebebeb" xlink:href="#kb9ro"/></g><g><use fill="#ebebeb" xlink:href="#kb9rp"/></g><g><use fill="#ebebeb" xlink:href="#kb9rq"/></g><g><use fill="#ebebeb" xlink:href="#kb9rr"/></g><g><use fill="#ebebeb" xlink:href="#kb9rs"/></g><g><use fill="#ebebeb" xlink:href="#kb9rt"/></g><g><use fill="#bebebe" xlink:href="#kb9ru"/></g><g><use fill="#bebebe" xlink:href="#kb9rv"/></g><g><use fill="#bebebe" xlink:href="#kb9rw"/></g><g><use fill="#bebebe" xlink:href="#kb9rx"/></g><g><use fill="#bebebe" xlink:href="#kb9ry"/></g><g><use fill="#bebebe" xlink:href="#kb9rz"/></g><g><g><use fill="#e4c05c" xlink:href="#kb9rA"/></g><g><use fill="#3ed4e0" xlink:href="#kb9rB"/></g><g><use fill="#ff7979" xlink:href="#kb9rC"/></g></g><g><g><use fill="#3ed4e0" xlink:href="#kb9rD"/></g><g><use fill="#ff7979" xlink:href="#kb9rE"/></g></g><g><g><use fill="#3ed4e0" xlink:href="#kb9rF"/></g><g><use fill="#ff7979" xlink:href="#kb9rG"/></g></g></g><g><g><use fill="#ebebeb" xlink:href="#kb9rH"/></g><g><use fill="#ebebeb" xlink:href="#kb9rI"/></g><g><use fill="#ebebeb" xlink:href="#kb9rJ"/></g><g><use fill="#ebebeb" xlink:href="#kb9rK"/></g><g><use fill="#ebebeb" xlink:href="#kb9rL"/></g><g><use fill="#ebebeb" xlink:href="#kb9rM"/></g><g><use fill="#bebebe" xlink:href="#kb9rN"/></g><g><use fill="#bebebe" xlink:href="#kb9rO"/></g><g><use fill="#bebebe" xlink:href="#kb9rP"/></g><g><use fill="#bebebe" xlink:href="#kb9rQ"/></g><g><use fill="#bebebe" xlink:href="#kb9rR"/></g><g><use fill="#bebebe" xlink:href="#kb9rS"/></g><g><g><use fill="#e4c05c" xlink:href="#kb9rT"/></g><g><use fill="#3ed4e0" xlink:href="#kb9rU"/></g><g><use fill="#ff7979" xlink:href="#kb9rV"/></g></g><g><g><use fill="#3ed4e0" xlink:href="#kb9rW"/></g><g><use fill="#ff7979" xlink:href="#kb9rX"/></g></g><g><g><use fill="#3ed4e0" xlink:href="#kb9rY"/></g><g><use fill="#ff7979" xlink:href="#kb9rZ"/></g></g></g><g><g><use fill="#ebebeb" xlink:href="#kb9raa"/></g><g><use fill="#ebebeb" xlink:href="#kb9rab"/></g><g><use fill="#ebebeb" xlink:href="#kb9rac"/></g><g><use fill="#ebebeb" xlink:href="#kb9rad"/></g><g><use fill="#ebebeb" xlink:href="#kb9rae"/></g><g><use fill="#ebebeb" xlink:href="#kb9raf"/></g><g><use fill="#bebebe" xlink:href="#kb9rag"/></g><g><use fill="#bebebe" xlink:href="#kb9rah"/></g><g><use fill="#bebebe" xlink:href="#kb9rai"/></g><g><use fill="#bebebe" xlink:href="#kb9raj"/></g><g><use fill="#bebebe" xlink:href="#kb9rak"/></g><g><use fill="#bebebe" xlink:href="#kb9ral"/></g><g><g><use fill="#e4c05c" xlink:href="#kb9ram"/></g><g><use fill="#3ed4e0" xlink:href="#kb9ran"/></g><g><use fill="#ff7979" xlink:href="#kb9rao"/></g></g><g><g><use fill="#3ed4e0" xlink:href="#kb9rap"/></g><g><use fill="#ff7979" xlink:href="#kb9raq"/></g></g><g><g><use fill="#3ed4e0" xlink:href="#kb9rar"/></g><g><use fill="#ff7979" xlink:href="#kb9ras"/></g></g></g></g></g></svg>