<svg xmlns="http://www.w3.org/2000/svg" xmlns:xlink="http://www.w3.org/1999/xlink" width="184" height="214" viewBox="0 0 184 214"><defs><path id="cokoa" d="M1088.168 2096.038h-24.942c0-3.303 3.724-15.147 7.108-17.2.08-.049-.703 9.835-.574 9.756 1.252-.756 2.637-1.266 3.914-2.191.107-.078 1.437 6.565 1.583 6.434.144-.128.977-10.48 1.148-10.644l-4.306 2.213-1.067-6.456c1.422-1.237 3.006-2.004 4.665-2.004 6.887 0 12.471 13.205 12.471 20.092z"/><path id="cokob" d="M1115.872 2095.378h-24.942c0-3.303 3.724-15.146 7.107-17.2.08-.048-.703 9.835-.573 9.757 1.251-.756 2.637-1.266 3.913-2.192.108-.077 1.437 6.565 1.584 6.434.144-.128.976-10.48 1.148-10.644l-4.307 2.214-1.066-6.457c1.421-1.237 3.005-2.004 4.665-2.004 6.887 0 12.47 13.206 12.47 20.092z"/><path id="cokoc" d="M1144.235 2095.378h-24.942c0-3.303 3.724-15.146 7.107-17.2.08-.048-.703 9.835-.573 9.757 1.251-.756 2.637-1.266 3.913-2.192.108-.077 1.438 6.565 1.584 6.434.144-.128.977-10.48 1.148-10.644l-4.307 2.214-1.066-6.457c1.421-1.237 3.005-2.004 4.665-2.004 6.887 0 12.471 13.206 12.471 20.092z"/><path id="cokod" d="M1077.349 2075.946c-.47 0-.93.066-1.386.182 6.235 1.59 11.085 13.491 11.085 19.91h2.772c0-6.887-5.585-20.092-12.471-20.092z"/><path id="cokoe" d="M1105.052 2075.286c-.469 0-.93.067-1.385.182 6.234 1.591 11.085 13.492 11.085 19.91h2.771c0-6.887-5.584-20.092-12.47-20.092z"/><path id="cokof" d="M1133.415 2075.286c-.468 0-.93.067-1.385.182 6.235 1.591 11.085 13.492 11.085 19.91h2.771c0-6.887-5.584-20.092-12.47-20.092z"/><path id="cokog" d="M994.433 2111.679h-20.104 20.104z"/><path id="cokoh" d="M1040.921 2107.025v-17.59h-10.437c-1.136.02-2.072.802-2.41 1.885a6.284 6.284 0 0 1-6 4.41 6.284 6.284 0 0 1-6-4.41c-.336-1.083-1.273-1.865-2.41-1.885h-10.823c-1.136.02-2.072.802-2.41 1.885a6.284 6.284 0 0 1-6 4.41 6.285 6.285 0 0 1-6-4.41c-.336-1.083-1.273-1.865-2.41-1.885h-10.435v17.59z"/><path id="cokoi" d="M1044.69 2104.512v7.538h-72.874v-7.538z"/><path id="cokoj" d="M1093.69 2107.025v-17.59h-10.438c-1.135.02-2.071.802-2.41 1.885a6.284 6.284 0 0 1-5.999 4.41 6.284 6.284 0 0 1-6-4.41c-.336-1.083-1.274-1.865-2.41-1.885h-10.824c-1.136.02-2.072.802-2.41 1.885a6.284 6.284 0 0 1-6 4.41 6.285 6.285 0 0 1-5.999-4.41c-.336-1.083-1.274-1.865-2.41-1.885h-10.436v17.59z"/><path id="cokok" d="M1097.46 2112.05h-72.875v-7.538h72.874z"/><path id="cokol" d="M1150.416 2107.025v-17.59h-10.437c-1.136.02-2.072.802-2.41 1.885a6.284 6.284 0 0 1-6 4.41 6.284 6.284 0 0 1-6-4.41c-.336-1.083-1.273-1.865-2.409-1.885h-10.824c-1.136.02-2.072.802-2.41 1.885a6.284 6.284 0 0 1-6 4.41 6.285 6.285 0 0 1-6-4.41c-.336-1.083-1.273-1.865-2.41-1.885h-10.435v17.59z"/><path id="cokom" d="M1154.186 2112.05h-72.874v-7.538h72.874z"/><path id="cokon" d="M1006.377 2272.891h-24.942c0-3.303 3.724-15.146 7.107-17.2.08-.048-.703 9.835-.573 9.757 1.251-.756 2.636-1.266 3.913-2.192.108-.077 1.437 6.566 1.584 6.435.144-.129.976-10.481 1.148-10.644l-4.307 2.213-1.067-6.456c1.422-1.238 3.006-2.005 4.666-2.005 6.886 0 12.47 13.206 12.47 20.092z"/><path id="cokoo" d="M1033.42 2272.891h-24.941c0-3.303 3.724-15.146 7.107-17.2.08-.048-.703 9.835-.573 9.757 1.251-.756 2.636-1.266 3.913-2.192.108-.077 1.437 6.566 1.584 6.435.144-.129.976-10.481 1.148-10.644l-4.307 2.213-1.067-6.456c1.422-1.238 3.006-2.005 4.666-2.005 6.886 0 12.47 13.206 12.47 20.092z"/><path id="cokop" d="M1060.465 2272.232h-24.942c0-3.303 3.724-15.147 7.107-17.2.08-.049-.703 9.835-.573 9.756 1.251-.756 2.636-1.266 3.913-2.191.108-.078 1.437 6.565 1.584 6.434.144-.129.976-10.48 1.148-10.644l-4.307 2.213-1.067-6.456c1.422-1.237 3.006-2.004 4.666-2.004 6.886 0 12.47 13.205 12.47 20.092z"/><path id="cokoq" d="M1088.168 2272.891h-24.942c0-3.303 3.724-15.146 7.108-17.2.08-.048-.703 9.835-.574 9.757 1.252-.756 2.637-1.266 3.914-2.192.107-.077 1.437 6.566 1.583 6.435.144-.129.977-10.481 1.148-10.644l-4.306 2.213-1.067-6.456c1.422-1.238 3.006-2.005 4.665-2.005 6.887 0 12.471 13.206 12.471 20.092z"/><path id="cokor" d="M1115.872 2272.232h-24.942c0-3.303 3.724-15.147 7.107-17.2.08-.049-.703 9.835-.573 9.756 1.251-.756 2.637-1.266 3.913-2.191.108-.078 1.437 6.565 1.584 6.434.144-.129.976-10.48 1.148-10.644l-4.307 2.213-1.066-6.456c1.421-1.237 3.005-2.004 4.665-2.004 6.887 0 12.47 13.205 12.47 20.092z"/><path id="cokos" d="M1144.235 2272.232h-24.942c0-3.303 3.724-15.147 7.107-17.2.08-.049-.703 9.835-.573 9.756 1.251-.756 2.637-1.266 3.913-2.191.108-.078 1.438 6.565 1.584 6.434.144-.129.977-10.48 1.148-10.644l-4.307 2.213-1.066-6.456c1.421-1.237 3.005-2.004 4.665-2.004 6.887 0 12.471 13.205 12.471 20.092z"/><path id="cokot" d="M995.557 2252.8c-.469 0-.93.066-1.385.181 6.234 1.591 11.085 13.492 11.085 19.91h2.771c0-6.886-5.584-20.092-12.47-20.092z"/><path id="cokou" d="M1022.601 2252.8c-.469 0-.93.066-1.386.181 6.235 1.591 11.086 13.492 11.086 19.91h2.771c0-6.886-5.584-20.092-12.47-20.092z"/><path id="cokov" d="M1049.645 2252.14c-.469 0-.93.066-1.386.182 6.235 1.59 11.086 13.491 11.086 19.91h2.771c0-6.887-5.584-20.092-12.47-20.092z"/><path id="cokow" d="M1077.349 2252.8c-.47 0-.93.066-1.386.181 6.235 1.591 11.085 13.492 11.085 19.91h2.772c0-6.886-5.585-20.092-12.471-20.092z"/><path id="cokox" d="M1105.052 2252.14c-.469 0-.93.066-1.385.182 6.234 1.59 11.085 13.491 11.085 19.91h2.771c0-6.887-5.584-20.092-12.47-20.092z"/><path id="cokoy" d="M1133.415 2252.14c-.468 0-.93.066-1.385.182 6.235 1.59 11.085 13.491 11.085 19.91h2.771c0-6.887-5.584-20.092-12.47-20.092z"/><path id="cokoz" d="M994.433 2288.532h-20.104 20.104z"/><path id="cokoA" d="M1040.921 2283.878v-17.59h-10.437c-1.136.02-2.072.803-2.41 1.886a6.284 6.284 0 0 1-6 4.409 6.284 6.284 0 0 1-6-4.41c-.336-1.082-1.273-1.865-2.41-1.885h-10.823c-1.136.02-2.072.803-2.41 1.886a6.284 6.284 0 0 1-6 4.409 6.285 6.285 0 0 1-6-4.41c-.336-1.082-1.273-1.865-2.41-1.885h-10.435v17.59z"/><path id="cokoB" d="M1044.69 2281.365v7.539h-72.874v-7.539z"/><path id="cokoC" d="M1093.69 2283.878v-17.59h-10.438c-1.135.02-2.071.803-2.41 1.886a6.284 6.284 0 0 1-5.999 4.409 6.284 6.284 0 0 1-6-4.41c-.336-1.082-1.274-1.865-2.41-1.885h-10.824c-1.136.02-2.072.803-2.41 1.886a6.284 6.284 0 0 1-6 4.409 6.285 6.285 0 0 1-5.999-4.41c-.336-1.082-1.274-1.865-2.41-1.885h-10.436v17.59z"/><path id="cokoD" d="M1097.46 2288.904h-72.875v-7.539h72.874z"/><path id="cokoE" d="M1150.416 2283.878v-17.59h-10.437c-1.136.02-2.072.803-2.41 1.886a6.284 6.284 0 0 1-6 4.409 6.284 6.284 0 0 1-6-4.41c-.336-1.082-1.273-1.865-2.409-1.885h-10.824c-1.136.02-2.072.803-2.41 1.886a6.284 6.284 0 0 1-6 4.409 6.285 6.285 0 0 1-6-4.41c-.336-1.082-1.273-1.865-2.41-1.885h-10.435v17.59z"/><path id="cokoF" d="M1154.186 2288.904h-72.874v-7.539h72.874z"/><path id="cokoG" d="M1006.377 2213.891h-24.942c0-3.303 3.724-15.146 7.107-17.2.08-.048-.703 9.835-.573 9.757 1.251-.756 2.636-1.266 3.913-2.192.108-.077 1.437 6.566 1.584 6.435.144-.129.976-10.481 1.148-10.644l-4.307 2.213-1.067-6.456c1.422-1.238 3.006-2.005 4.666-2.005 6.886 0 12.47 13.206 12.47 20.092z"/><path id="cokoH" d="M1033.42 2213.891h-24.941c0-3.303 3.724-15.146 7.107-17.2.08-.048-.703 9.835-.573 9.757 1.251-.756 2.636-1.266 3.913-2.192.108-.077 1.437 6.566 1.584 6.435.144-.129.976-10.481 1.148-10.644l-4.307 2.213-1.067-6.456c1.422-1.238 3.006-2.005 4.666-2.005 6.886 0 12.47 13.206 12.47 20.092z"/><path id="cokoI" d="M1060.465 2213.232h-24.942c0-3.303 3.724-15.147 7.107-17.2.08-.049-.703 9.835-.573 9.756 1.251-.756 2.636-1.266 3.913-2.191.108-.078 1.437 6.565 1.584 6.434.144-.129.976-10.48 1.148-10.644l-4.307 2.213-1.067-6.456c1.422-1.237 3.006-2.004 4.666-2.004 6.886 0 12.47 13.205 12.47 20.092z"/><path id="cokoJ" d="M1088.168 2213.891h-24.942c0-3.303 3.724-15.146 7.108-17.2.08-.048-.703 9.835-.574 9.757 1.252-.756 2.637-1.266 3.914-2.192.107-.077 1.437 6.566 1.583 6.435.144-.129.977-10.481 1.148-10.644l-4.306 2.213-1.067-6.456c1.422-1.238 3.006-2.005 4.665-2.005 6.887 0 12.471 13.206 12.471 20.092z"/><path id="cokoK" d="M1115.872 2213.232h-24.942c0-3.303 3.724-15.147 7.107-17.2.08-.049-.703 9.835-.573 9.756 1.251-.756 2.637-1.266 3.913-2.191.108-.078 1.437 6.565 1.584 6.434.144-.129.976-10.48 1.148-10.644l-4.307 2.213-1.066-6.456c1.421-1.237 3.005-2.004 4.665-2.004 6.887 0 12.47 13.205 12.47 20.092z"/><path id="cokoL" d="M1144.235 2213.232h-24.942c0-3.303 3.724-15.147 7.107-17.2.08-.049-.703 9.835-.573 9.756 1.251-.756 2.637-1.266 3.913-2.191.108-.078 1.438 6.565 1.584 6.434.144-.129.977-10.48 1.148-10.644l-4.307 2.213-1.066-6.456c1.421-1.237 3.005-2.004 4.665-2.004 6.887 0 12.471 13.205 12.471 20.092z"/><path id="cokoM" d="M995.557 2193.8c-.469 0-.93.066-1.385.181 6.234 1.591 11.085 13.492 11.085 19.91h2.771c0-6.886-5.584-20.092-12.47-20.092z"/><path id="cokoN" d="M1022.601 2193.8c-.469 0-.93.066-1.386.181 6.235 1.591 11.086 13.492 11.086 19.91h2.771c0-6.886-5.584-20.092-12.47-20.092z"/><path id="cokoO" d="M1049.645 2193.14c-.469 0-.93.066-1.386.182 6.235 1.59 11.086 13.491 11.086 19.91h2.771c0-6.887-5.584-20.092-12.47-20.092z"/><path id="cokoP" d="M1077.349 2193.8c-.47 0-.93.066-1.386.181 6.235 1.591 11.085 13.492 11.085 19.91h2.772c0-6.886-5.585-20.092-12.471-20.092z"/><path id="cokoQ" d="M1105.052 2193.14c-.469 0-.93.066-1.385.182 6.234 1.59 11.085 13.491 11.085 19.91h2.771c0-6.887-5.584-20.092-12.47-20.092z"/><path id="cokoR" d="M1133.415 2193.14c-.468 0-.93.066-1.385.182 6.235 1.59 11.085 13.491 11.085 19.91h2.771c0-6.887-5.584-20.092-12.47-20.092z"/><path id="cokoS" d="M994.433 2229.532h-20.104 20.104z"/><path id="cokoT" d="M1040.921 2224.878v-17.59h-10.437c-1.136.02-2.072.803-2.41 1.886a6.284 6.284 0 0 1-6 4.409 6.284 6.284 0 0 1-6-4.41c-.336-1.082-1.273-1.865-2.41-1.885h-10.823c-1.136.02-2.072.803-2.41 1.886a6.284 6.284 0 0 1-6 4.409 6.285 6.285 0 0 1-6-4.41c-.336-1.082-1.273-1.865-2.41-1.885h-10.435v17.59z"/><path id="cokoU" d="M1044.69 2222.365v7.539h-72.874v-7.539z"/><path id="cokoV" d="M1093.69 2224.878v-17.59h-10.438c-1.135.02-2.071.803-2.41 1.886a6.284 6.284 0 0 1-5.999 4.409 6.284 6.284 0 0 1-6-4.41c-.336-1.082-1.274-1.865-2.41-1.885h-10.824c-1.136.02-2.072.803-2.41 1.886a6.284 6.284 0 0 1-6 4.409 6.285 6.285 0 0 1-5.999-4.41c-.336-1.082-1.274-1.865-2.41-1.885h-10.436v17.59z"/><path id="cokoW" d="M1097.46 2229.904h-72.875v-7.539h72.874z"/><path id="cokoX" d="M1150.416 2224.878v-17.59h-10.437c-1.136.02-2.072.803-2.41 1.886a6.284 6.284 0 0 1-6 4.409 6.284 6.284 0 0 1-6-4.41c-.336-1.082-1.273-1.865-2.409-1.885h-10.824c-1.136.02-2.072.803-2.41 1.886a6.284 6.284 0 0 1-6 4.409 6.285 6.285 0 0 1-6-4.41c-.336-1.082-1.273-1.865-2.41-1.885h-10.435v17.59z"/><path id="cokoY" d="M1154.186 2229.904h-72.874v-7.539h72.874z"/><path id="cokoZ" d="M1006.377 2154.891h-24.942c0-3.303 3.724-15.146 7.107-17.2.08-.048-.703 9.835-.573 9.757 1.251-.756 2.636-1.266 3.913-2.192.108-.077 1.437 6.566 1.584 6.435.144-.129.976-10.481 1.148-10.644l-4.307 2.213-1.067-6.456c1.422-1.238 3.006-2.005 4.666-2.005 6.886 0 12.47 13.206 12.47 20.092z"/><path id="cokoaa" d="M1033.42 2154.891h-24.941c0-3.303 3.724-15.146 7.107-17.2.08-.048-.703 9.835-.573 9.757 1.251-.756 2.636-1.266 3.913-2.192.108-.077 1.437 6.566 1.584 6.435.144-.129.976-10.481 1.148-10.644l-4.307 2.213-1.067-6.456c1.422-1.238 3.006-2.005 4.666-2.005 6.886 0 12.47 13.206 12.47 20.092z"/><path id="cokoab" d="M1060.465 2154.232h-24.942c0-3.303 3.724-15.147 7.107-17.2.08-.049-.703 9.835-.573 9.756 1.251-.756 2.636-1.266 3.913-2.191.108-.078 1.437 6.565 1.584 6.434.144-.129.976-10.48 1.148-10.644l-4.307 2.213-1.067-6.456c1.422-1.237 3.006-2.004 4.666-2.004 6.886 0 12.47 13.205 12.47 20.092z"/><path id="cokoac" d="M1088.168 2154.891h-24.942c0-3.303 3.724-15.146 7.108-17.2.08-.048-.703 9.835-.574 9.757 1.252-.756 2.637-1.266 3.914-2.192.107-.077 1.437 6.566 1.583 6.435.144-.129.977-10.481 1.148-10.644l-4.306 2.213-1.067-6.456c1.422-1.238 3.006-2.005 4.665-2.005 6.887 0 12.471 13.206 12.471 20.092z"/><path id="cokoad" d="M1115.872 2154.232h-24.942c0-3.303 3.724-15.147 7.107-17.2.08-.049-.703 9.835-.573 9.756 1.251-.756 2.637-1.266 3.913-2.191.108-.078 1.437 6.565 1.584 6.434.144-.129.976-10.48 1.148-10.644l-4.307 2.213-1.066-6.456c1.421-1.237 3.005-2.004 4.665-2.004 6.887 0 12.47 13.205 12.47 20.092z"/><path id="cokoae" d="M1144.235 2154.232h-24.942c0-3.303 3.724-15.147 7.107-17.2.08-.049-.703 9.835-.573 9.756 1.251-.756 2.637-1.266 3.913-2.191.108-.078 1.438 6.565 1.584 6.434.144-.129.977-10.48 1.148-10.644l-4.307 2.213-1.066-6.456c1.421-1.237 3.005-2.004 4.665-2.004 6.887 0 12.471 13.205 12.471 20.092z"/><path id="cokoaf" d="M995.557 2134.8c-.469 0-.93.066-1.385.181 6.234 1.591 11.085 13.492 11.085 19.91h2.771c0-6.886-5.584-20.092-12.47-20.092z"/><path id="cokoag" d="M1022.601 2134.8c-.469 0-.93.066-1.386.181 6.235 1.591 11.086 13.492 11.086 19.91h2.771c0-6.886-5.584-20.092-12.47-20.092z"/><path id="cokoah" d="M1049.645 2134.14c-.469 0-.93.066-1.386.182 6.235 1.59 11.086 13.491 11.086 19.91h2.771c0-6.887-5.584-20.092-12.47-20.092z"/><path id="cokoai" d="M1077.349 2134.8c-.47 0-.93.066-1.386.181 6.235 1.591 11.085 13.492 11.085 19.91h2.772c0-6.886-5.585-20.092-12.471-20.092z"/><path id="cokoaj" d="M1105.052 2134.14c-.469 0-.93.066-1.385.182 6.234 1.59 11.085 13.491 11.085 19.91h2.771c0-6.887-5.584-20.092-12.47-20.092z"/><path id="cokoak" d="M1133.415 2134.14c-.468 0-.93.066-1.385.182 6.235 1.59 11.085 13.491 11.085 19.91h2.771c0-6.887-5.584-20.092-12.47-20.092z"/><path id="cokoal" d="M994.433 2170.532h-20.104 20.104z"/><path id="cokoam" d="M1040.921 2165.878v-17.59h-10.437c-1.136.02-2.072.803-2.41 1.886a6.284 6.284 0 0 1-6 4.409 6.284 6.284 0 0 1-6-4.41c-.336-1.082-1.273-1.865-2.41-1.885h-10.823c-1.136.02-2.072.803-2.41 1.886a6.284 6.284 0 0 1-6 4.409 6.285 6.285 0 0 1-6-4.41c-.336-1.082-1.273-1.865-2.41-1.885h-10.435v17.59z"/><path id="cokoan" d="M1044.69 2163.365v7.539h-72.874v-7.539z"/><path id="cokoao" d="M1093.69 2165.878v-17.59h-10.438c-1.135.02-2.071.803-2.41 1.886a6.284 6.284 0 0 1-5.999 4.409 6.284 6.284 0 0 1-6-4.41c-.336-1.082-1.274-1.865-2.41-1.885h-10.824c-1.136.02-2.072.803-2.41 1.886a6.284 6.284 0 0 1-6 4.409 6.285 6.285 0 0 1-5.999-4.41c-.336-1.082-1.274-1.865-2.41-1.885h-10.436v17.59z"/><path id="cokoap" d="M1097.46 2170.904h-72.875v-7.539h72.874z"/><path id="cokoaq" d="M1150.416 2165.878v-17.59h-10.437c-1.136.02-2.072.803-2.41 1.886a6.284 6.284 0 0 1-6 4.409 6.284 6.284 0 0 1-6-4.41c-.336-1.082-1.273-1.865-2.409-1.885h-10.824c-1.136.02-2.072.803-2.41 1.886a6.284 6.284 0 0 1-6 4.409 6.285 6.285 0 0 1-6-4.41c-.336-1.082-1.273-1.865-2.41-1.885h-10.435v17.59z"/><path id="cokoar" d="M1154.186 2170.904h-72.874v-7.539h72.874z"/></defs><g><g transform="translate(-971 -2075)"><g><g><use fill="#ebebeb" xlink:href="#cokoa"/></g><g><use fill="#ebebeb" xlink:href="#cokob"/></g><g><use fill="#ebebeb" xlink:href="#cokoc"/></g><g><use fill="#bebebe" xlink:href="#cokod"/></g><g><use fill="#bebebe" xlink:href="#cokoe"/></g><g><use fill="#bebebe" xlink:href="#cokof"/></g><g><g><use fill="#e4c05c" xlink:href="#cokog"/></g><g><use fill="#3ed4e0" xlink:href="#cokoh"/></g><g><use fill="#ff7979" xlink:href="#cokoi"/></g></g><g><g><use fill="#3ed4e0" xlink:href="#cokoj"/></g><g><use fill="#ff7979" xlink:href="#cokok"/></g></g><g><g><use fill="#3ed4e0" xlink:href="#cokol"/></g><g><use fill="#ff7979" xlink:href="#cokom"/></g></g></g><g><g><use fill="#ebebeb" xlink:href="#cokon"/></g><g><use fill="#ebebeb" xlink:href="#cokoo"/></g><g><use fill="#ebebeb" xlink:href="#cokop"/></g><g><use fill="#ebebeb" xlink:href="#cokoq"/></g><g><use fill="#ebebeb" xlink:href="#cokor"/></g><g><use fill="#ebebeb" xlink:href="#cokos"/></g><g><use fill="#bebebe" xlink:href="#cokot"/></g><g><use fill="#bebebe" xlink:href="#cokou"/></g><g><use fill="#bebebe" xlink:href="#cokov"/></g><g><use fill="#bebebe" xlink:href="#cokow"/></g><g><use fill="#bebebe" xlink:href="#cokox"/></g><g><use fill="#bebebe" xlink:href="#cokoy"/></g><g><g><use fill="#e4c05c" xlink:href="#cokoz"/></g><g><use fill="#3ed4e0" xlink:href="#cokoA"/></g><g><use fill="#ff7979" xlink:href="#cokoB"/></g></g><g><g><use fill="#3ed4e0" xlink:href="#cokoC"/></g><g><use fill="#ff7979" xlink:href="#cokoD"/></g></g><g><g><use fill="#3ed4e0" xlink:href="#cokoE"/></g><g><use fill="#ff7979" xlink:href="#cokoF"/></g></g></g><g><g><use fill="#ebebeb" xlink:href="#cokoG"/></g><g><use fill="#ebebeb" xlink:href="#cokoH"/></g><g><use fill="#ebebeb" xlink:href="#cokoI"/></g><g><use fill="#ebebeb" xlink:href="#cokoJ"/></g><g><use fill="#ebebeb" xlink:href="#cokoK"/></g><g><use fill="#ebebeb" xlink:href="#cokoL"/></g><g><use fill="#bebebe" xlink:href="#cokoM"/></g><g><use fill="#bebebe" xlink:href="#cokoN"/></g><g><use fill="#bebebe" xlink:href="#cokoO"/></g><g><use fill="#bebebe" xlink:href="#cokoP"/></g><g><use fill="#bebebe" xlink:href="#cokoQ"/></g><g><use fill="#bebebe" xlink:href="#cokoR"/></g><g><g><use fill="#e4c05c" xlink:href="#cokoS"/></g><g><use fill="#3ed4e0" xlink:href="#cokoT"/></g><g><use fill="#ff7979" xlink:href="#cokoU"/></g></g><g><g><use fill="#3ed4e0" xlink:href="#cokoV"/></g><g><use fill="#ff7979" xlink:href="#cokoW"/></g></g><g><g><use fill="#3ed4e0" xlink:href="#cokoX"/></g><g><use fill="#ff7979" xlink:href="#cokoY"/></g></g></g><g><g><use fill="#ebebeb" xlink:href="#cokoZ"/></g><g><use fill="#ebebeb" xlink:href="#cokoaa"/></g><g><use fill="#ebebeb" xlink:href="#cokoab"/></g><g><use fill="#ebebeb" xlink:href="#cokoac"/></g><g><use fill="#ebebeb" xlink:href="#cokoad"/></g><g><use fill="#ebebeb" xlink:href="#cokoae"/></g><g><use fill="#bebebe" xlink:href="#cokoaf"/></g><g><use fill="#bebebe" xlink:href="#cokoag"/></g><g><use fill="#bebebe" xlink:href="#cokoah"/></g><g><use fill="#bebebe" xlink:href="#cokoai"/></g><g><use fill="#bebebe" xlink:href="#cokoaj"/></g><g><use fill="#bebebe" xlink:href="#cokoak"/></g><g><g><use fill="#e4c05c" xlink:href="#cokoal"/></g><g><use fill="#3ed4e0" xlink:href="#cokoam"/></g><g><use fill="#ff7979" xlink:href="#cokoan"/></g></g><g><g><use fill="#3ed4e0" xlink:href="#cokoao"/></g><g><use fill="#ff7979" xlink:href="#cokoap"/></g></g><g><g><use fill="#3ed4e0" xlink:href="#cokoaq"/></g><g><use fill="#ff7979" xlink:href="#cokoar"/></g></g></g></g></g></svg>