<svg xmlns="http://www.w3.org/2000/svg" xmlns:xlink="http://www.w3.org/1999/xlink" width="150" height="253" viewBox="0 0 150 253"><defs><path id="8i2na" d="M621.052 2470.55c-9.772-9.992-25.85-9.992-35.618 0a24.838 24.838 0 0 0-17.811-7.495 24.827 24.827 0 0 0-17.807 7.495 24.845 24.845 0 0 0-17.81-7.495 24.827 24.827 0 0 0-17.807 7.495 24.837 24.837 0 0 0-17.812-7.495 24.826 24.826 0 0 0-17.806 7.495c0-39.343 31.892-71.235 71.235-71.235 39.344 0 71.236 31.892 71.236 71.235z"/><path id="8i2nb" d="M549.816 2470.55v-71.235c.155 0 .31 0 .46.004 19.46.496 35.158 32.197 35.158 71.231a24.838 24.838 0 0 0-17.811-7.495 24.83 24.83 0 0 0-17.807 7.495z"/><path id="8i2nc" d="M478.581 2470.55c0-39.188 31.644-70.988 70.776-71.23-19.46.495-35.158 32.196-35.158 71.23a24.837 24.837 0 0 0-17.812-7.495 24.828 24.828 0 0 0-17.806 7.495z"/><path id="8i2nd" d="M530.648 2405.388c-3.29 3.515-6.316 7.973-8.984 13.308-6.149 12.299-9.852 28.126-10.627 45.133-4.366-2.664-9.39-4.09-14.649-4.09-5.051 0-9.884 1.32-14.128 3.785 2.858-27.683 22.408-50.482 48.388-58.136zm58.268 66.78l-.29-.097c3.993-3.685 9.14-5.702 14.616-5.702 4.969 0 9.663 1.666 13.475 4.725l-55.708 84.171zm-77.911-.098l-.292.098 27.923 83.078-55.775-84.11c3.82-3.086 8.535-4.767 13.527-4.767 5.477 0 10.623 2.017 14.617 5.701zm27.086-64.627c2.729-2.308 5.546-3.79 8.409-4.436v60.73c-4.33-2.603-9.297-3.997-14.494-3.997-5.128 0-10.034 1.359-14.325 3.897.777-15.9 4.227-30.605 9.913-41.976 3.069-6.138 6.6-10.921 10.497-14.218zm29.533 52.297c-5.197 0-10.164 1.394-14.495 3.997v-60.73c2.864.646 5.68 2.128 8.41 4.436 3.896 3.297 7.428 8.08 10.497 14.218 5.686 11.371 9.137 26.076 9.914 41.976-4.29-2.538-9.197-3.897-14.326-3.897zm-14.495 12.223c3.977-3.614 9.073-5.593 14.495-5.593 5.378 0 10.435 1.949 14.397 5.507l-28.892 86.027zm-6.628 85.872l-28.892-85.959c3.963-3.558 9.02-5.507 14.397-5.507 5.421 0 10.518 1.98 14.494 5.594zm70.87-94.31c-4.245-2.466-9.078-3.785-14.129-3.785-5.258 0-10.282 1.425-14.65 4.089-.773-17.007-4.477-32.834-10.626-45.133-2.668-5.336-5.695-9.793-8.987-13.309 25.981 7.654 45.533 30.454 48.391 58.137zM549.814 2396c-41.107 0-74.55 33.443-74.55 74.55 0 .528.126 1.048.367 1.517l.289.561c.056.11.118.215.185.316l70.917 106.945c.366.586.901 1.04 1.531 1.303.044.018.087.038.131.054a3.533 3.533 0 0 0 .472.134c.073.015.145.031.219.042.133.019.269.03.406.032.016 0 .031.004.047.004H549.844c.164 0 .326-.016.486-.04l.076-.014c.143-.025.284-.059.421-.102l.056-.018a3.31 3.31 0 0 0 1.724-1.311l71.209-107.593c.36-.543.55-1.18.55-1.83 0-41.107-33.444-74.55-74.55-74.55z"/><path id="8i2ne" d="M535.864 2606.347c0 16.518 6.353 31.499 16.711 42.614-.459.026-.931.039-1.403.039-19.721 0-35.718-16.208-35.718-36.19v-6.463z"/><path id="8i2nf" d="M586.89 2606.347v6.463c0 19.504-15.244 35.414-34.315 36.151-10.358-11.115-16.71-26.096-16.71-42.614z"/><path id="8i2ng" d="M574.133 2606.347h-45.922c0-6.161 6.856-28.256 13.085-32.087.148-.09-1.294 18.347-1.056 18.201 2.305-1.41 4.855-2.362 7.206-4.088.198-.145 2.646 12.248 2.916 12.003.265-.24 1.798-19.552 2.113-19.857l-7.93 4.13-1.963-12.045c2.617-2.308 5.534-3.74 8.59-3.74 12.68 0 22.961 24.636 22.961 37.483z"/><path id="8i2nh" d="M551.172 2568.865c-.863 0-1.713.124-2.551.34 11.48 2.967 20.41 25.168 20.41 37.142h5.102c0-12.847-10.281-37.482-22.961-37.482z"/><path id="8i2ni" d="M583.063 2606.347h-2.552c0 5.106 2.268 9.678 5.827 12.764.183-1.051.322-2.113.411-3.193a14.252 14.252 0 0 1-3.686-9.57z"/><path id="8i2nj" d="M577.96 2606.347h-2.551a22.05 22.05 0 0 0 9.549 18.2c.292-.863.556-1.74.783-2.63a19.43 19.43 0 0 1-7.781-15.57z"/><path id="8i2nk" d="M572.858 2606.347h-2.552a27.206 27.206 0 0 0 12.633 23c.392-.767.754-1.55 1.09-2.35a24.62 24.62 0 0 1-11.171-20.65z"/><path id="8i2nl" d="M580.273 2633.782c.494-.7.96-1.422 1.403-2.158a29.816 29.816 0 0 1-13.92-25.277h-2.552a32.413 32.413 0 0 0 15.069 27.435z"/><path id="8i2nm" d="M577.002 2637.793c.594-.63 1.161-1.285 1.71-1.959a35 35 0 0 1-16.06-29.487h-2.55a37.594 37.594 0 0 0 16.9 31.446z"/><path id="8i2nn" d="M557.55 2606.347h-2.551a42.791 42.791 0 0 0 18.106 35.02 36.624 36.624 0 0 0 2.015-1.728 40.197 40.197 0 0 1-17.57-33.292z"/><path id="8i2no" d="M552.447 2606.347h-2.55a47.983 47.983 0 0 0 18.668 38.064 36.572 36.572 0 0 0 2.35-1.454 45.38 45.38 0 0 1-18.468-36.61z"/><path id="8i2np" d="M547.345 2606.347h-2.551a53.18 53.18 0 0 0 18.584 40.467c.913-.337 1.81-.701 2.684-1.108a50.58 50.58 0 0 1-18.717-39.359z"/><path id="8i2nq" d="M542.242 2606.347h-2.55c0 16.535 6.856 31.47 17.826 42.067a34.678 34.678 0 0 0 3.01-.687 55.767 55.767 0 0 1-18.286-41.38z"/><path id="8i2nr" d="M536.029 2610.685a29.059 29.059 0 0 1-9.637-4.338h-4.18c3.968 3.437 8.77 5.908 14.058 7.047-.101-.897-.178-1.8-.241-2.709z"/><path id="8i2ns" d="M537.107 2618.809a58.588 58.588 0 0 1-.48-2.713c-7.034-1.319-13.325-4.8-18.167-9.749h-3.006v.54c5.547 6.221 13.119 10.554 21.653 11.922z"/><path id="8i2nt" d="M537.704 2621.5c-8.587-1.148-16.31-5.096-22.25-10.91v2.22c0 .438.018.87.032 1.305 6.308 5.502 14.231 9.149 22.948 10.086a66.046 66.046 0 0 1-.73-2.7z"/><path id="8i2nu" d="M539.29 2626.866c-8.796-.719-16.877-4.023-23.503-9.173.169 1.255.397 2.488.687 3.698 6.868 4.719 15.02 7.653 23.808 8.143-.351-.88-.682-1.769-.993-2.668z"/><path id="8i2nv" d="M541.395 2632.16a48.93 48.93 0 0 1-23.803-6.999 36.224 36.224 0 0 0 1.654 3.866 51.393 51.393 0 0 0 23.407 5.75 62.132 62.132 0 0 1-1.258-2.618z"/><path id="8i2nw" d="M545.563 2639.884a63.266 63.266 0 0 1-1.53-2.546c-.377.008-.751.03-1.128.03a53.935 53.935 0 0 1-21.4-4.407 36.13 36.13 0 0 0 2.997 3.907 56.444 56.444 0 0 0 18.403 3.084c.89 0 1.775-.027 2.658-.068z"/><path id="8i2nx" d="M547.22 2642.363a59.849 59.849 0 0 1-4.315.174c-4.976 0-9.809-.627-14.434-1.791a35.909 35.909 0 0 0 5.365 3.702c2.96.438 5.988.675 9.069.675 2.071 0 4.119-.109 6.14-.309a61.27 61.27 0 0 1-1.825-2.45z"/></defs><g><g transform="translate(-475 -2396)"><g><g><use fill="#3ed4e0" xlink:href="#8i2na"/></g><g><g><use fill="#ff7979" xlink:href="#8i2nb"/></g><g><use fill="#ff7979" xlink:href="#8i2nc"/></g></g><g><use fill="#656565" xlink:href="#8i2nd"/></g></g><g><g><use fill="#3ed4e0" xlink:href="#8i2ne"/></g><g><use fill="#3ed4e0" xlink:href="#8i2nf"/></g><g><use fill="#ebebeb" xlink:href="#8i2ng"/></g><g><use fill="#bebebe" xlink:href="#8i2nh"/></g><g><g><use fill="#ff7979" xlink:href="#8i2ni"/></g><g><use fill="#ff7979" xlink:href="#8i2nj"/></g><g><use fill="#ff7979" xlink:href="#8i2nk"/></g><g><use fill="#ff7979" xlink:href="#8i2nl"/></g><g><use fill="#ff7979" xlink:href="#8i2nm"/></g><g><use fill="#ff7979" xlink:href="#8i2nn"/></g><g><use fill="#ff7979" xlink:href="#8i2no"/></g><g><use fill="#ff7979" xlink:href="#8i2np"/></g><g><use fill="#ff7979" xlink:href="#8i2nq"/></g></g><g><use fill="#ff7979" xlink:href="#8i2nr"/></g><g><use fill="#ff7979" xlink:href="#8i2ns"/></g><g><use fill="#ff7979" xlink:href="#8i2nt"/></g><g><use fill="#ff7979" xlink:href="#8i2nu"/></g><g><use fill="#ff7979" xlink:href="#8i2nv"/></g><g><use fill="#ff7979" xlink:href="#8i2nw"/></g><g><use fill="#ff7979" xlink:href="#8i2nx"/></g></g></g></g></svg>