<svg xmlns="http://www.w3.org/2000/svg" xmlns:xlink="http://www.w3.org/1999/xlink" width="1084" height="378" viewBox="0 0 1084 378"><defs><path id="p91ma" d="M960.593 638.135V727h166.851v-77.52z"/><path id="p91mb" d="M793.741 727v-77.52h166.852V727z"/><path id="p91mc" d="M1105.296 649.48V464.8h22.148v184.68z"/><path id="p91md" d="M771.593 437.594v8.12c0 26.096 21.154 47.25 47.25 47.25 26.095 0 47.25-21.154 47.25-47.25v-8.12l-47.25-22.149z"/><path id="p91me" d="M866.093 349h-94.5v88.594h94.5l44.297-42.896z"/><path id="p91mf" d="M866.093 437.594v8.12c0 26.096 21.154 47.25 47.25 47.25 26.095 0 47.25-21.154 47.25-47.25v-8.12l-47.25-22.149z"/><path id="p91mg" d="M960.593 349h-94.5v88.594h94.5l44.297-42.896z"/><path id="p91mh" d="M960.593 437.594v8.12c0 26.096 21.154 47.25 47.25 47.25 26.095 0 47.25-21.154 47.25-47.25v-8.12l-47.25-22.149z"/><path id="p91mi" d="M1055.093 349h-94.5v88.594h94.5l44.297-42.896z"/><path id="p91mj" d="M1055.093 437.594v8.12c0 26.096 21.154 47.25 47.25 47.25 26.095 0 47.25-21.154 47.25-47.25v-8.12l-47.25-22.149z"/><path id="p91mk" d="M1055.093 437.594V349h94.5v88.594z"/><path id="p91ml" d="M1149.593 660.555h-189l-22.149-11.075 22.149-11.074h189z"/><path id="p91mm" d="M771.593 660.555v-22.149h189v22.149z"/><path id="p91mn" d="M1314.993 638.135V727h166.852v-77.52z"/><path id="p91mo" d="M1148.142 727v-77.52h166.851V727z"/><path id="p91mp" d="M1459.696 649.48V464.8h22.149v184.68z"/><path id="p91mq" d="M1125.993 437.594v8.12c0 26.096 21.155 47.25 47.25 47.25s47.25-21.154 47.25-47.25v-8.12l-47.25-22.149z"/><path id="p91mr" d="M1220.493 349h-94.5v88.594h94.5l44.297-42.896z"/><path id="p91ms" d="M1220.493 437.594v8.12c0 26.096 21.155 47.25 47.25 47.25s47.25-21.154 47.25-47.25v-8.12l-47.25-22.149z"/><path id="p91mt" d="M1314.993 349h-94.5v88.594h94.5l44.297-42.896z"/><path id="p91mu" d="M1314.993 437.594v8.12c0 26.096 21.155 47.25 47.25 47.25s47.25-21.154 47.25-47.25v-8.12l-47.25-22.149z"/><path id="p91mv" d="M1409.493 349h-94.5v88.594h94.5l44.297-42.896z"/><path id="p91mw" d="M1409.493 437.594v8.12c0 26.096 21.155 47.25 47.25 47.25s47.25-21.154 47.25-47.25v-8.12l-47.25-22.149z"/><path id="p91mx" d="M1409.493 437.594V349h94.5v88.594z"/><path id="p91my" d="M1503.993 660.555h-189l-22.148-11.075 22.148-11.074h189z"/><path id="p91mz" d="M1125.993 660.555v-22.149h189v22.149z"/><path id="p91mA" d="M609.007 638.135V727h166.851v-77.52z"/><path id="p91mB" d="M442.155 727v-77.52h166.852V727z"/><path id="p91mC" d="M753.71 649.48V464.8h22.148v184.68z"/><path id="p91mD" d="M442.155 649.48V464.8h22.149v184.68z"/><path id="p91mE" d="M420.007 437.594v8.12c0 26.096 21.154 47.25 47.25 47.25 26.095 0 47.25-21.154 47.25-47.25v-8.12l-47.25-22.149z"/><path id="p91mF" d="M514.507 349h-94.5v88.594h94.5l44.297-42.896z"/><path id="p91mG" d="M514.507 437.594v8.12c0 26.096 21.154 47.25 47.25 47.25 26.095 0 47.25-21.154 47.25-47.25v-8.12l-47.25-22.149z"/><path id="p91mH" d="M609.007 349h-94.5v88.594h94.5l44.296-42.896z"/><path id="p91mI" d="M609.007 437.594v8.12c0 26.096 21.154 47.25 47.25 47.25 26.095 0 47.25-21.154 47.25-47.25v-8.12l-47.25-22.149z"/><path id="p91mJ" d="M703.507 349h-94.5v88.594h94.5l44.297-42.896z"/><path id="p91mK" d="M703.507 437.594v8.12c0 26.096 21.154 47.25 47.25 47.25 26.095 0 47.25-21.154 47.25-47.25v-8.12l-47.25-22.149z"/><path id="p91mL" d="M703.507 437.594V349h94.5v88.594z"/><path id="p91mM" d="M798.007 660.555h-189l-22.149-11.075 22.149-11.074h189z"/><path id="p91mN" d="M420.007 660.555v-22.149h189v22.149z"/></defs><g><g transform="translate(-420 -349)"><use fill="#646464" xlink:href="#p91ma"/></g><g transform="translate(-420 -349)"><use fill="#434343" xlink:href="#p91mb"/></g><g transform="translate(-420 -349)"><use fill="#646464" xlink:href="#p91mc"/></g><g transform="translate(-420 -349)"><use fill="#f78b8b" xlink:href="#p91md"/></g><g transform="translate(-420 -349)"><use fill="#ff7272" xlink:href="#p91me"/></g><g transform="translate(-420 -349)"><use fill="#8bf2fa" xlink:href="#p91mf"/></g><g transform="translate(-420 -349)"><use fill="#3ed4e0" xlink:href="#p91mg"/></g><g transform="translate(-420 -349)"><use fill="#f78b8b" xlink:href="#p91mh"/></g><g transform="translate(-420 -349)"><use fill="#ff7272" xlink:href="#p91mi"/></g><g transform="translate(-420 -349)"><use fill="#8bf2fa" xlink:href="#p91mj"/></g><g transform="translate(-420 -349)"><use fill="#3ed4e0" xlink:href="#p91mk"/></g><g transform="translate(-420 -349)"><use fill="#646464" xlink:href="#p91ml"/></g><g transform="translate(-420 -349)"><use fill="#434343" xlink:href="#p91mm"/></g><g transform="translate(-420 -349)"><use fill="#646464" xlink:href="#p91mn"/></g><g transform="translate(-420 -349)"><use fill="#434343" xlink:href="#p91mo"/></g><g transform="translate(-420 -349)"><use fill="#646464" xlink:href="#p91mp"/></g><g transform="translate(-420 -349)"><use fill="#f78b8b" xlink:href="#p91mq"/></g><g transform="translate(-420 -349)"><use fill="#ff7272" xlink:href="#p91mr"/></g><g transform="translate(-420 -349)"><use fill="#8bf2fa" xlink:href="#p91ms"/></g><g transform="translate(-420 -349)"><use fill="#3ed4e0" xlink:href="#p91mt"/></g><g transform="translate(-420 -349)"><use fill="#f78b8b" xlink:href="#p91mu"/></g><g transform="translate(-420 -349)"><use fill="#ff7272" xlink:href="#p91mv"/></g><g transform="translate(-420 -349)"><use fill="#8bf2fa" xlink:href="#p91mw"/></g><g transform="translate(-420 -349)"><use fill="#3ed4e0" xlink:href="#p91mx"/></g><g transform="translate(-420 -349)"><use fill="#646464" xlink:href="#p91my"/></g><g transform="translate(-420 -349)"><use fill="#434343" xlink:href="#p91mz"/></g><g transform="translate(-420 -349)"><use fill="#646464" xlink:href="#p91mA"/></g><g transform="translate(-420 -349)"><use fill="#434343" xlink:href="#p91mB"/></g><g transform="translate(-420 -349)"><use fill="#646464" xlink:href="#p91mC"/></g><g transform="translate(-420 -349)"><use fill="#434343" xlink:href="#p91mD"/></g><g transform="translate(-420 -349)"><use fill="#f78b8b" xlink:href="#p91mE"/></g><g transform="translate(-420 -349)"><use fill="#ff7272" xlink:href="#p91mF"/></g><g transform="translate(-420 -349)"><use fill="#8bf2fa" xlink:href="#p91mG"/></g><g transform="translate(-420 -349)"><use fill="#3ed4e0" xlink:href="#p91mH"/></g><g transform="translate(-420 -349)"><use fill="#f78b8b" xlink:href="#p91mI"/></g><g transform="translate(-420 -349)"><use fill="#ff7272" xlink:href="#p91mJ"/></g><g transform="translate(-420 -349)"><use fill="#8bf2fa" xlink:href="#p91mK"/></g><g transform="translate(-420 -349)"><use fill="#3ed4e0" xlink:href="#p91mL"/></g><g transform="translate(-420 -349)"><use fill="#646464" xlink:href="#p91mM"/></g><g transform="translate(-420 -349)"><use fill="#434343" xlink:href="#p91mN"/></g></g></svg>