<svg xmlns="http://www.w3.org/2000/svg" xmlns:xlink="http://www.w3.org/1999/xlink" width="41" height="55" viewBox="0 0 41 55"><defs><path id="ikwla" d="M744.64 252.094c.564-1.126 1.127-2.533 1.69-3.66.844-1.407 1.126-2.533 1.407-3.94.282-.564.282-1.409.282-2.253 0-.845-.282-1.408-.282-2.252-.281-.845-.281-1.408-.563-2.534-1.689-.563-2.534-2.252-3.941-3.66-.845 0-1.97.281-3.097.281-.563 0-1.126.282-1.408-.281h-.281c-.563.281-1.408.281-1.97 0-.564-.282-1.409 0-1.972 0s-1.126 0-1.689-.563c.845-.563 1.69-1.408 2.815-1.69.282 0 .564-.28.845-.28 1.126-.845 2.815-1.127 3.942-1.69.281-.282.563-.282 1.126-.563h.844c.282-.282.563-.563.563-1.126 0-1.126.282-1.97.282-3.097.281-.845.281-1.97.563-2.815.281-1.126.563-2.534 1.126-3.66.845-2.534 2.252-4.786 4.786-6.194 1.408-.844 3.097-1.408 5.068-2.252.281-1.69 1.126-3.097 1.97-4.786.282-.563.282-1.126 0-1.408-.281-.563-.281-1.407-.563-1.97 1.126-.564 2.252-.564 3.379-.564 1.407-.563 2.533-1.689 4.222-1.407 1.408-.845 2.816 0 4.223.281.282 0 .282.282.563.282 1.69 1.126 3.097 2.534 3.66 4.504.282.563.563 1.408.563 2.253.282.844.282 1.689.282 2.533 0 .563 0 1.126-.282 1.971-.281.563.282 1.126-.281 1.69 0 1.407-.282 2.533-.282 3.94 0 1.127.563 2.253 1.126 3.379.564 1.69.282 3.378.282 4.786-.563 1.408-1.126 2.815-1.97 4.223l-2.534 3.378c-.282.282-.564.845-.845 1.126-.845 1.127-2.252 2.253-3.378 3.097l-.845.845c0 .844.282 1.689.282 2.534.281.844.844 1.407 1.689 1.97.281.282.844.563 1.126.845.563.563 1.126 1.126 1.689 1.408.845.563 1.408 1.407 1.69 2.252.28 1.126 1.125 1.97 1.407 3.097 0 .281.281.563.563.844 0 .282.281.845.281 1.408-.563 0-1.126-.563-1.126-.845-.281-.844-.844-1.407-.844-2.252 0-.281-.282-.281-.563-.563-.563.845 0 1.97-.563 2.815-.282.845.281 1.971-.563 2.534h-.282c-.282-1.69.563-3.097 0-4.786-.563 0-.845.563-1.126.845-.282.563-.282.844-.563 1.126-.282.281-.563.281-.845.844.563-2.252 1.97-3.941 2.534-5.912-.282-1.126-1.126-1.689-1.97-2.534-.845-.844-1.69-1.407-2.534-1.97-1.127-.563-1.971-1.408-3.097-1.971l-.563-.563-.563-.563c-.845.281-1.127.281-1.408.281-.282 0-.845.282-1.126 0-.282-.281-.845-.281-1.126-.281h-5.63a25.703 25.703 0 0 1-2.253 3.66v2.815c0 1.126.281 1.97.844 2.815.564 1.127 1.127 2.534 1.69 3.66 0 .282.281.563.281.845-.563 0-.844-.282-.844-.563-.563-1.408-1.408-2.534-1.971-3.942l-.563.563c0 .564.281 1.408 0 1.971-.282.563-.282 1.126-.282 1.97 0 .564 0 1.127-.563 1.69l-.563-.563c0-1.408.282-3.097.282-4.504-.563-.282-.845 0-.845.563-.281.563-.563 1.407-.845 1.97-.281.282-.563.282-.563.563z"/></defs><g><g transform="translate(-733 -199)"><use fill="#faae03" xlink:href="#ikwla"/></g></g></svg>